<?xml version="1.0"?>
<svg width="24" height="24" xmlns="http://www.w3.org/2000/svg" xmlns:svg="http://www.w3.org/2000/svg">
 <g class="layer">
  <title>Layer 1</title>
  <path d="m17,3.5l-10,0c-3,0 -5,1.5 -5,5l0,7c0,3.5 2,5 5,5l10,0c3,0 5,-1.5 5,-5l0,-7c0,-3.5 -2,-5 -5,-5zm0.47,6.09l-3.13,2.5c-0.66,0.53 -1.5,0.79 -2.34,0.79c-0.84,0 -1.69,-0.26 -2.34,-0.79l-3.13,-2.5c-0.32,-0.26 -0.37,-0.74 -0.12,-1.06c0.26,-0.32 0.73,-0.38 1.05,-0.12l3.13,2.5c0.76,0.61 2.05,0.61 2.81,0l3.13,-2.5c0.32,-0.26 0.8,-0.21 1.05,0.12c0.26,0.32 0.21,0.8 -0.11,1.06z" fill="#292D32" id="svg_1"/>
  <ellipse cx="18.64" cy="5.92" fill="#ff0000" id="svg_2" rx="4" ry="4" stroke="#000000"/>
 </g>
</svg>