<?xml version="1.0"?>
<svg width="448" height="512" xmlns="http://www.w3.org/2000/svg" xmlns:svg="http://www.w3.org/2000/svg" version="1.2" xml:space="preserve">
 <g class="layer">
  <title>Layer 1</title>
  <g id="svg_1">
   <path d="m222.99,510c31.42,0 57.53,-22.65 62.95,-52.5l-125.9,0c5.42,29.85 31.53,52.5 62.95,52.5z" id="svg_2"/>
   <path d="m432.87,352.06c-22.25,-22.25 -49.88,-32.94 -49.88,-141.06c0,-79.39 -57.83,-145.27 -133.67,-157.83l-4.14,0c4.84,-5.32 7.78,-12.39 7.78,-20.14c0,-16.56 -13.42,-29.98 -29.97,-29.98s-29.98,13.42 -29.98,29.98c0,7.75 2.95,14.82 7.78,20.14l-4.14,0c-75.83,12.56 -133.66,78.44 -133.66,157.83c0,108.12 -27.65,118.81 -49.9,141.06c-30.14,30.15 -8.78,81.94 33.94,81.94l351.9,0c42.64,0 64.15,-51.73 33.94,-81.94z" id="svg_3"/>
  </g>
  <circle cx="331.41" cy="88.22" fill="#FF0000" id="svg_4" r="56.22" stroke="#000000"/>
 </g>
</svg>